<?xml version="1.0" encoding="utf-8"?>
<!-- Generator: Adobe Illustrator 21.0.0, SVG Export Plug-In . SVG Version: 6.00 Build 0)  -->
<svg version="1.1" id="Calque_1" xmlns="http://www.w3.org/2000/svg" xmlns:xlink="http://www.w3.org/1999/xlink" x="0px" y="0px"
	 viewBox="0 0 75 75" style="enable-background:new 0 0 75 75;" xml:space="preserve">
<style type="text/css">
	.st0{fill:#1E1B1B;stroke:#1E1B1B;stroke-width:2;stroke-miterlimit:10;}
</style>
<g>
	<path class="st0" d="M33.7,53.2c0,3.1-2.5,5.6-5.6,5.6h-0.2c-3.1,0-5.6-2.5-5.6-5.6V22.8c0-3.1,2.5-5.6,5.6-5.6h0.2
		c3.1,0,5.6,2.5,5.6,5.6V53.2z"/>
	<path class="st0" d="M52.6,53.2c0,3.1-2.5,5.6-5.6,5.6h-0.2c-3.1,0-5.6-2.5-5.6-5.6V22.8c0-3.1,2.5-5.6,5.6-5.6H47
		c3.1,0,5.6,2.5,5.6,5.6V53.2z"/>
</g>
</svg>
