<?xml version="1.0" encoding="utf-8"?>
<!-- Generator: Adobe Illustrator 21.0.0, SVG Export Plug-In . SVG Version: 6.00 Build 0)  -->
<svg version="1.1" id="Calque_1" xmlns="http://www.w3.org/2000/svg" xmlns:xlink="http://www.w3.org/1999/xlink" x="0px" y="0px"
	 viewBox="0 0 75 75" style="enable-background:new 0 0 75 75;" xml:space="preserve">
<style type="text/css">
	.st0{fill:#1E1B1B;}
</style>
<g>
	<path class="st0" d="M61.4,10.3c-0.3-1.1-1.3-1.6-1.7-1.8l-0.2-0.1H24l-0.2,0.1c-1.9,0.7-1.9,2.4-1.9,3v14.7h7.3V15.6l25.1,0v47.6
		H27.2v-2.9h-3.8c-0.9,0-1.5,0.6-1.5,1.5v5.6c0,0.7,0,2.4,1.9,3.1l0.2,0.1h0.2c11.5,0,23.5,0,35.3-0.2l0.2,0l0.2-0.1
		c1.9-0.7,1.9-2.5,1.9-3.1V11.6C61.6,11.2,61.6,10.7,61.4,10.3z"/>
	<path class="st0" d="M28.7,55.8v-3.3c0.2,0.1,0.4,0.3,0.7,0.5c0.4,0.3,0.6,0.4,0.4,0.8c0,0,0.1,0.2,0.1,0.3l0,6.8
		c0.1,1.1,0.7,1.7,1.7,1.7h5.5c1,0,2.6-0.6,2.6-1.6l0-1.5c-0.1-3.4-0.1-7.5-0.1-10.7c0-0.8-0.8-0.8-1.5-1.5
		c-0.3-0.2-0.9-0.6-1.2-0.8l7.8,0c1.3,0,1.8-1.5,1.8-2.8V39c0-1.3,0-2.6-1.8-2.8h-5.3v-2.6c0-0.6-0.3-1.2-0.8-1.5
		c-0.3-0.2-0.6-0.4-0.9-0.6c0.6,0.2,1.2,0.3,1.8,0.3c3.6,0,6.6-3,6.6-6.6s-3-6.6-6.6-6.6c-3.6,0-6.6,3-6.6,6.6
		c0,1.4,0.5,2.8,1.3,3.9c-0.3-0.2-0.6-0.4-0.9-0.6c-0.8-0.5-1.5-0.8-2.4-0.8h-12c-2.4-0.1-2.8,0.5-2.8,1.8v10.9
		c0,1.1,0.2,1.8,2.8,1.8c0,1,0.5,1.7,0.3,2.9l0,3.1h-5.8c-1.8-0.1-1.8,1.6-1.8,2.8v4.9c0,1.3,0.5,2.8,1.8,2.8h13.5
		C28.2,58.6,28.7,57.1,28.7,55.8z M36.6,25.4c0-1.6,1.3-2.9,2.9-2.9c1.6,0,2.9,1.3,2.9,2.9s-1.3,2.9-2.9,2.9
		C37.9,28.2,36.6,26.9,36.6,25.4z M25.8,47.2c-0.5,0.3-0.7,0.8-0.7,1.4v6H14.9l0-2.6H21c1,0,1.6-0.6,1.6-1.6c-0.1-2.4-0.1-5-0.1-7.3
		c0-0.4,0.1-0.5,0.1-0.6c0.9-1.3,1.8-2.6,2.8-3.9c0.9-1.3,1.9-2.6,2.7-3.9c0.4-0.5,0.5-1.1,0.3-1.6c-0.2-0.5-0.7-0.8-1.3-0.8h-3.7
		c-0.9,0-1.5,0.6-1.5,1.6v3.7c0,0.3,0,0.5-0.2,0.8c-0.5,0.9-1,1.1-1.9,0.9h-0.1l0-7.6c0,0,0,0,0.1,0h10.9c1.6,1,2.8,2,4.3,3.1v3.5
		c0,1.3,1.5,1.9,2.8,1.9h5.2v2.1l-8.4,0v-1.8c0-0.7-0.3-1.2-0.9-1.5c-0.6-0.3-1.2-0.1-1.7,0.6c-0.4,0.5-0.7,1-1.1,1.6
		c-0.5,0.8-1.1,1.6-1.7,2.4c-0.8,1.2-0.3,1.9,0.5,2.5c0.9,0.6,1.8,1.3,2.8,1.9c0.9,0.7,1.9,1.3,2.7,1.9c0.1,0.1,0.1,0.1,0.1,0.1
		c0.1,3.1,0.1,6.2,0.1,9.5h-1.2c-0.5-0.1-0.1-0.3-0.3-0.6v-6.9c0-0.8-1.1-1.3-1.9-1.7c-0.7-0.5-1.4-0.9-2.1-1.4
		c-0.7-0.5-1.4-0.9-2.1-1.4l-0.1-0.1h-0.1c-0.1,0-0.1-0.1-0.2-0.2C26.8,46.9,26.2,46.9,25.8,47.2z"/>
</g>
</svg>
